<svg xmlns="http://www.w3.org/2000/svg" viewBox="0 0 1600 700" preserveAspectRatio="xMidYMax slice">
<defs>
  <linearGradient id="relleno" x1="0" y1="0" x2="0" y2="1">
    <stop offset="0" stop-color="#C9A45C" stop-opacity="0.20"/>
    <stop offset="1" stop-color="#C9A45C" stop-opacity="0.03"/>
  </linearGradient>
</defs>
<g fill="url(#relleno)" stroke="#C9A45C" stroke-opacity="0.55" stroke-width="1.6" stroke-linejoin="round">
<polygon points="160,158 800,22 1440,158"/>
<polygon points="245,150 800,54 1355,150" fill="none" stroke-opacity="0.35"/>
<g fill="none" stroke="#C9A45C" stroke-opacity="0.75" stroke-width="2"><circle cx="800" cy="112" r="28"/><line x1="800" y1="92" x2="800" y2="132"/><line x1="774" y1="102" x2="826" y2="102"/><path d="M774 102 L766 120 Q774 126 782 120 Z"/><path d="M826 102 L818 120 Q826 126 834 120 Z"/></g>
<rect x="180" y="158" width="1240" height="20"/>
<rect x="200" y="178" width="1200" height="34"/>
<rect x="200" y="212" width="1200" height="38"/>
<rect x="216.0" y="250" width="92" height="22"/>
<rect x="229.0" y="272" width="66" height="330"/>
<rect x="218.0" y="602" width="88" height="14"/>
<line x1="244.0" y1="276" x2="244.0" y2="598" stroke-opacity="0.25"/>
<line x1="256.0" y1="276" x2="256.0" y2="598" stroke-opacity="0.25"/>
<line x1="268.0" y1="276" x2="268.0" y2="598" stroke-opacity="0.25"/>
<line x1="280.0" y1="276" x2="280.0" y2="598" stroke-opacity="0.25"/>
<rect x="369.7" y="250" width="92" height="22"/>
<rect x="382.7" y="272" width="66" height="330"/>
<rect x="371.7" y="602" width="88" height="14"/>
<line x1="397.7" y1="276" x2="397.7" y2="598" stroke-opacity="0.25"/>
<line x1="409.7" y1="276" x2="409.7" y2="598" stroke-opacity="0.25"/>
<line x1="421.7" y1="276" x2="421.7" y2="598" stroke-opacity="0.25"/>
<line x1="433.7" y1="276" x2="433.7" y2="598" stroke-opacity="0.25"/>
<rect x="523.4" y="250" width="92" height="22"/>
<rect x="536.4" y="272" width="66" height="330"/>
<rect x="525.4" y="602" width="88" height="14"/>
<line x1="551.4" y1="276" x2="551.4" y2="598" stroke-opacity="0.25"/>
<line x1="563.4" y1="276" x2="563.4" y2="598" stroke-opacity="0.25"/>
<line x1="575.4" y1="276" x2="575.4" y2="598" stroke-opacity="0.25"/>
<line x1="587.4" y1="276" x2="587.4" y2="598" stroke-opacity="0.25"/>
<rect x="677.1" y="250" width="92" height="22"/>
<rect x="690.1" y="272" width="66" height="330"/>
<rect x="679.1" y="602" width="88" height="14"/>
<line x1="705.1" y1="276" x2="705.1" y2="598" stroke-opacity="0.25"/>
<line x1="717.1" y1="276" x2="717.1" y2="598" stroke-opacity="0.25"/>
<line x1="729.1" y1="276" x2="729.1" y2="598" stroke-opacity="0.25"/>
<line x1="741.1" y1="276" x2="741.1" y2="598" stroke-opacity="0.25"/>
<rect x="830.8" y="250" width="92" height="22"/>
<rect x="843.8" y="272" width="66" height="330"/>
<rect x="832.8" y="602" width="88" height="14"/>
<line x1="858.8" y1="276" x2="858.8" y2="598" stroke-opacity="0.25"/>
<line x1="870.8" y1="276" x2="870.8" y2="598" stroke-opacity="0.25"/>
<line x1="882.8" y1="276" x2="882.8" y2="598" stroke-opacity="0.25"/>
<line x1="894.8" y1="276" x2="894.8" y2="598" stroke-opacity="0.25"/>
<rect x="984.5" y="250" width="92" height="22"/>
<rect x="997.5" y="272" width="66" height="330"/>
<rect x="986.5" y="602" width="88" height="14"/>
<line x1="1012.5" y1="276" x2="1012.5" y2="598" stroke-opacity="0.25"/>
<line x1="1024.5" y1="276" x2="1024.5" y2="598" stroke-opacity="0.25"/>
<line x1="1036.5" y1="276" x2="1036.5" y2="598" stroke-opacity="0.25"/>
<line x1="1048.5" y1="276" x2="1048.5" y2="598" stroke-opacity="0.25"/>
<rect x="1138.2" y="250" width="92" height="22"/>
<rect x="1151.2" y="272" width="66" height="330"/>
<rect x="1140.2" y="602" width="88" height="14"/>
<line x1="1166.2" y1="276" x2="1166.2" y2="598" stroke-opacity="0.25"/>
<line x1="1178.2" y1="276" x2="1178.2" y2="598" stroke-opacity="0.25"/>
<line x1="1190.2" y1="276" x2="1190.2" y2="598" stroke-opacity="0.25"/>
<line x1="1202.2" y1="276" x2="1202.2" y2="598" stroke-opacity="0.25"/>
<rect x="1291.9" y="250" width="92" height="22"/>
<rect x="1304.9" y="272" width="66" height="330"/>
<rect x="1293.9" y="602" width="88" height="14"/>
<line x1="1319.9" y1="276" x2="1319.9" y2="598" stroke-opacity="0.25"/>
<line x1="1331.9" y1="276" x2="1331.9" y2="598" stroke-opacity="0.25"/>
<line x1="1343.9" y1="276" x2="1343.9" y2="598" stroke-opacity="0.25"/>
<line x1="1355.9" y1="276" x2="1355.9" y2="598" stroke-opacity="0.25"/>
<rect x="170" y="616" width="1260" height="18"/>
<rect x="130" y="634" width="1340" height="20"/>
<rect x="90" y="654" width="1420" height="22"/>
<rect x="50" y="676" width="1500" height="24"/>
</g></svg>